<svg width="24" height="24" viewBox="0 0 24 24" fill="none" xmlns="http://www.w3.org/2000/svg">
<path d="M9.00488 8.10254C9.05621 8.60667 9.48232 9 10 9H14L14.1025 8.99512C14.573 8.94722 14.9472 8.57297 14.9951 8.10254L15 8V4C15 3.48232 14.6067 3.05621 14.1025 3.00488L14 3V1C15.6569 1 17 2.34315 17 4V8C17 9.65685 15.6569 11 14 11H10C8.34315 11 7 9.65685 7 8V4C7 2.34315 8.34315 1 10 1V3C9.44772 3 9 3.44772 9 4V8L9.00488 8.10254ZM14 1V3H10V1H14Z" fill="#0A1013"/>
<path d="M3.00488 20.1025C3.05621 20.6067 3.48232 21 4 21H8L8.10254 20.9951C8.57297 20.9472 8.94722 20.573 8.99512 20.1025L9 20V16C9 15.4823 8.60667 15.0562 8.10254 15.0049L8 15V13C9.65685 13 11 14.3431 11 16V20C11 21.6569 9.65685 23 8 23H4C2.34315 23 1 21.6569 1 20V16C1 14.3431 2.34315 13 4 13V15C3.44772 15 3 15.4477 3 16V20L3.00488 20.1025ZM8 13V15H4V13H8Z" fill="#0A1013"/>
<path d="M15.0049 20.1025C15.0562 20.6067 15.4823 21 16 21H20L20.1025 20.9951C20.573 20.9472 20.9472 20.573 20.9951 20.1025L21 20V16C21 15.4823 20.6067 15.0562 20.1025 15.0049L20 15V13C21.6569 13 23 14.3431 23 16V20C23 21.6569 21.6569 23 20 23H16C14.3431 23 13 21.6569 13 20V16C13 14.3431 14.3431 13 16 13V15C15.4477 15 15 15.4477 15 16V20L15.0049 20.1025ZM20 13V15H16V13H20Z" fill="#0A1013"/>
</svg>
