<svg width="12" height="12" viewBox="0 0 12 12" fill="none" xmlns="http://www.w3.org/2000/svg">
<g clip-path="url(#clip0_4_137)">
<path d="M11.667 5.98001C11.3105 5.61701 11.231 5.06551 11.4705 4.61651C11.6415 4.29651 11.6535 3.91601 11.5025 3.58551C11.352 3.25551 11.056 3.01451 10.702 2.93451C10.2065 2.82201 9.841 2.40101 9.8005 1.89401C9.771 1.53251 9.575 1.20501 9.2695 1.00901C8.965 0.812511 8.586 0.770011 8.2445 0.894511C7.7665 1.06801 7.2315 0.910511 6.9235 0.506511C6.7035 0.218511 6.3615 0.0490112 5.9985 0.0490112C5.636 0.0490112 5.294 0.218511 5.074 0.506511C4.7675 0.911011 4.2325 1.06851 3.7545 0.895011C3.4135 0.771011 3.0345 0.813511 2.7295 1.00951C2.4245 1.20551 2.228 1.53301 2.199 1.89451C2.158 2.40151 1.793 2.82301 1.2975 2.93501C0.9435 3.01501 0.6475 3.25601 0.497 3.58601C0.3465 3.91601 0.3585 4.29701 0.5295 4.61651C0.769 5.06501 0.6895 5.61701 0.3335 5.98001C0.0790003 6.23851 -0.0399997 6.60101 0.0115003 6.96001C0.0630003 7.31901 0.2795 7.63351 0.5965 7.81001C1.0405 8.05751 1.2725 8.56501 1.1685 9.06251C1.095 9.41751 1.1905 9.78651 1.428 10.0605C1.666 10.335 2.018 10.4825 2.379 10.4595C2.887 10.428 3.3555 10.7295 3.5375 11.204C3.667 11.543 3.9475 11.8015 4.296 11.9035C4.6435 12.0055 5.0195 11.9395 5.3115 11.725C5.721 11.4235 6.2795 11.4235 6.6885 11.725C6.9805 11.94 7.3565 12.006 7.704 11.9035C8.0525 11.8015 8.333 11.5425 8.463 11.204C8.6445 10.7295 9.1135 10.4275 9.621 10.4595C9.983 10.4825 10.3345 10.335 10.572 10.0605C10.8095 9.78651 10.9055 9.41751 10.8315 9.06251C10.728 8.56501 10.9595 8.05751 11.404 7.81001C11.7205 7.63301 11.9365 7.31901 11.9885 6.96001C12.0405 6.60101 11.921 6.23851 11.667 5.98001ZM5.375 8.69501L3.125 6.51301L4.0535 5.58451L5.375 6.83751L8.1965 3.94551L9.125 4.87401L5.375 8.69501Z" fill="#0098FE"/>
</g>
<defs>
<clipPath id="clip0_4_137">
<rect width="12" height="12" fill="white"/>
</clipPath>
</defs>
</svg>
