<svg width="24" height="24" viewBox="0 0 24 24" fill="none" xmlns="http://www.w3.org/2000/svg">
<g clip-path="url(#clip0_3_17)">
<path d="M2.31172 10.8441C1.49442 11.2528 1.60817 12.4532 2.48768 12.7011L10.4589 14.9475C10.7949 15.0422 11.156 14.9548 11.4115 14.717L14.2692 12.0571C15.1745 11.2145 14.045 9.80173 13.0238 10.4995L10.2283 12.4094C9.98465 12.5759 9.67991 12.6263 9.39565 12.547L8.03239 12.167C7.15081 11.9213 7.03515 10.7185 7.85375 10.3093L18.8936 4.79009C19.6667 4.40357 20.5329 5.11376 20.3055 5.94768L17.3446 16.8032C17.1493 17.5194 16.2693 17.7806 15.7149 17.2869L13.8919 15.6638C13.5041 15.3185 12.9035 15.3802 12.5941 15.7973C12.0865 16.4815 11 16.1225 11 15.2706V14.7808C11 14.3219 10.6877 13.9219 10.2425 13.8106C9.61139 13.6528 9 14.1302 9 14.7808V20.973C9 21.9367 10.2291 22.3428 10.8032 21.5687L12.8215 18.8474C13.1715 18.3755 13.851 18.3056 14.2897 18.6963L16.7948 20.9269C17.3492 21.4205 18.2293 21.1593 18.4246 20.4431L23.4115 2.15777C23.639 1.32384 22.7727 0.613664 21.9995 1.00023L2.31172 10.8441Z" fill="#0A1013"/>
</g>
<defs>
<clipPath id="clip0_3_17">
<rect width="24" height="24" fill="white"/>
</clipPath>
</defs>
</svg>
