<svg width="24" height="24" viewBox="0 0 24 24" fill="none" xmlns="http://www.w3.org/2000/svg">
<path d="M12 3C6.486 3 2 6.685 2 11.213C2 16.253 7.146 19.372 11.913 19.372C13.94 19.372 15.461 18.933 16.461 18.66L20.465 19.856L19.213 16.956C20.165 15.956 22 14.368 22 11.213C22 6.685 17.514 3 12 3ZM12 1C18.628 1 24 5.573 24 11.213C24 13.603 23.068 15.804 21.573 17.377L24 23L16.437 20.74C14.852 21.174 13.336 21.372 11.914 21.372C4.816 21.373 0 16.441 0 11.213C0 5.573 5.372 1 12 1Z" fill="black"/>
</svg>
