<svg width="24" height="24" viewBox="0 0 24 24" fill="none" xmlns="http://www.w3.org/2000/svg">
<path d="M10.5088 1.5C15.4798 1.5 19.5165 5.53572 19.5166 10.5078C19.5166 12.5428 18.8381 14.4216 17.6992 15.9297L22.1348 20.3652C22.379 20.6095 22.5 20.9309 22.5 21.25C22.5 21.7238 22.2716 22.0561 21.9941 22.2529C21.7415 22.4321 21.4509 22.5 21.25 22.5C20.931 22.5 20.6099 22.3784 20.3652 22.1338L15.9307 17.6992C14.4214 18.8379 12.543 19.5156 10.5088 19.5156C5.53578 19.5155 1.5 15.4799 1.5 10.5078C1.5001 5.53579 5.53584 1.50011 10.5088 1.5ZM20.7764 21.832C20.8355 21.8801 20.9 21.9179 20.9678 21.9453C20.9 21.9179 20.8354 21.8801 20.7764 21.832ZM22 21.25C22 21.2047 21.9944 21.1598 21.9863 21.1152C21.9944 21.1598 22 21.2047 22 21.25ZM21.9746 21.0674C21.9676 21.0391 21.9606 21.0109 21.9502 20.9834C21.9606 21.0109 21.9676 21.0391 21.9746 21.0674ZM21.9258 20.9297C21.9149 20.9065 21.904 20.8835 21.8906 20.8613C21.904 20.8835 21.9149 20.9066 21.9258 20.9297ZM11.5752 17.4336C11.4592 17.4513 11.3424 17.4665 11.2246 17.4785C11.46 17.4546 11.6919 17.4188 11.9199 17.3721L11.5752 17.4336ZM15.9697 17.0312C15.8278 17.15 15.6808 17.2626 15.5312 17.3721C15.6808 17.2626 15.8278 17.15 15.9697 17.0312ZM12.5908 17.2002V17.1992V17.2002ZM8.10059 17.0898V17.0889V17.0898ZM10.5088 4.00098C6.91714 4.00109 4.00205 6.91706 4.00195 10.5078C4.00195 14.0986 6.91707 17.0145 10.5088 17.0146C14.0987 17.0146 17.0156 14.0986 17.0156 10.5078C17.0155 6.91709 14.0986 4.00098 10.5088 4.00098ZM13.8467 16.668L13.8477 16.6689L13.8467 16.668ZM16.8242 13.5439C16.7257 13.7483 16.6172 13.9469 16.5 14.1396C16.3828 14.3324 16.2568 14.5192 16.1221 14.6992C15.6511 15.3286 15.0771 15.8766 14.4248 16.3174L14.7002 16.1221C15.5994 15.4494 16.3319 14.5657 16.8242 13.5449V13.5439ZM5.55469 15.4619V15.4609V15.4619ZM17.2002 12.5908C17.1319 12.8101 17.0535 13.0249 16.9648 13.2344C17.0535 13.0249 17.1319 12.8101 17.2002 12.5908ZM17.373 9.09668C17.4198 9.32464 17.4555 9.55659 17.4795 9.79199L17.4355 9.44141C17.4178 9.32549 17.3964 9.21066 17.373 9.09668ZM14.9648 5.10156H14.9639H14.9648ZM13.8467 4.34766H13.8477H13.8467Z" fill="#0A1013"/>
</svg>
