<svg width="24" height="24" viewBox="0 0 24 24" fill="none" xmlns="http://www.w3.org/2000/svg">
<path d="M21.8787 13C21.3934 13 21 13.3934 21 13.8787V20C21 21.6569 19.6569 23 18 23H17C15.3431 23 14 21.6569 14 20V15C14 13.8954 13.1046 13 12 13C10.8954 13 10 13.8954 10 15V20C10 21.6569 8.65685 23 7 23H6C4.34315 23 3 21.6569 3 20V13.8787C3 13.3934 2.6066 13 2.12132 13C1.3385 13 0.946463 12.0535 1.5 11.5L9.87868 3.12132C11.0503 1.94975 12.9497 1.94975 14.1213 3.12132L22.5 11.5C23.0535 12.0535 22.6615 13 21.8787 13Z" fill="#0A1013"/>
</svg>
