<svg width="24" height="24" viewBox="0 0 24 24" fill="none" xmlns="http://www.w3.org/2000/svg">
<path d="M6.75781 1.7002C8.73788 1.70032 10.692 2.58944 12 4.32715C13.3046 2.59719 15.264 1.70998 17.248 1.70996C20.2981 1.70996 23.2997 3.8329 23.2998 7.75195C23.2998 9.93185 22.0509 12.1436 20.1689 14.4482C18.2818 16.7592 15.7071 19.2213 12.9766 21.8984C12.7049 22.1658 12.3517 22.2998 12 22.2998C11.6483 22.2998 11.2941 22.1668 11.0225 21.8994V21.8984C8.30257 19.2314 5.72849 16.7685 3.83887 14.4551C1.95455 12.1481 0.700195 9.93142 0.700195 7.75195C0.700333 3.83909 3.70374 1.7002 6.75781 1.7002ZM9.39258 17.5391C10.1959 18.3438 11.0655 19.2005 12 20.1152C11.0654 19.2005 10.1959 18.3438 9.39258 17.5391ZM6.75684 3.9668C5.80447 3.96692 4.8897 4.28437 4.21875 4.83203L4.08789 4.94434C3.35187 5.6099 2.95026 6.57312 2.9502 7.75195C2.9502 9.16481 3.73026 10.7183 5.30957 12.6846C6.84657 14.5981 9.09832 16.852 11.999 19.6934C14.9875 16.7606 17.2419 14.4879 18.7578 12.5869C20.3135 10.6361 21.0498 9.12904 21.0498 7.75195C21.0497 6.43558 20.5539 5.50092 19.8447 4.8916C19.1285 4.2762 18.1752 3.97656 17.248 3.97656C15.2436 3.97659 13.9637 5.36178 12.918 6.84277V6.84375C12.7069 7.14153 12.3649 7.31934 12 7.31934H11.999C11.6341 7.31782 11.2918 7.13855 11.082 6.83887C10.0384 5.34894 8.78383 3.96783 6.75684 3.9668ZM21.2666 8.59863C21.211 8.88515 21.1274 9.17679 21.0166 9.47559L21.1182 9.17969C21.1799 8.98329 21.2295 8.78985 21.2666 8.59863ZM2.72949 8.5752C2.74345 8.6492 2.76069 8.72317 2.77832 8.79785C2.7607 8.72317 2.74345 8.64919 2.72949 8.5752ZM21.3291 7.29297C21.3422 7.44117 21.3496 7.59411 21.3496 7.75195C21.3496 7.8446 21.346 7.93781 21.3398 8.03125H21.3408C21.347 7.93784 21.3496 7.84458 21.3496 7.75195C21.3496 7.5941 21.3422 7.44118 21.3291 7.29297ZM2.75977 6.7041C2.68691 7.034 2.65041 7.38429 2.65039 7.75195C2.65041 7.38431 2.68695 7.03397 2.75977 6.7041ZM10.625 5.74023C10.5022 5.59276 10.3761 5.44786 10.2441 5.30859C10.3761 5.44785 10.5022 5.59277 10.625 5.74023ZM22.3877 5.02148V5.02051V5.02148ZM12 4.84766C11.9259 4.73526 11.8488 4.62634 11.7695 4.52051C11.8488 4.62634 11.9259 4.73526 12 4.84766ZM5.56836 3.82324C4.93181 3.99484 4.3495 4.30312 3.88672 4.72266C4.39565 4.26129 5.04961 3.93503 5.76074 3.77637L5.56836 3.82324ZM11.6504 4.37012C11.6055 4.31371 11.561 4.25754 11.5146 4.20312C11.561 4.25754 11.6055 4.31371 11.6504 4.37012ZM11.3896 4.06348C11.3456 4.0147 11.303 3.96504 11.2578 3.91797C11.303 3.96504 11.3456 4.0147 11.3896 4.06348ZM7.75781 3.78027C7.86658 3.80561 7.97314 3.83411 8.07715 3.86719L7.90234 3.81543C7.85474 3.80254 7.80638 3.79159 7.75781 3.78027ZM11.1104 3.77148C11.0651 3.72727 11.02 3.6832 10.9736 3.64062C11.02 3.6832 11.0651 3.72727 11.1104 3.77148ZM6.95996 3.6709C7.09376 3.67675 7.2242 3.68917 7.35156 3.70605C7.22419 3.68916 7.09377 3.67675 6.95996 3.6709ZM6.55469 3.6709C6.42019 3.67685 6.28661 3.68949 6.1543 3.70703C6.28658 3.68948 6.42022 3.67784 6.55469 3.67188C6.62208 3.66889 6.69007 3.66699 6.75781 3.66699C6.68995 3.66699 6.6222 3.66791 6.55469 3.6709ZM10.8525 3.5332C10.7945 3.4826 10.7362 3.43289 10.6768 3.38477C10.7362 3.4329 10.7945 3.48259 10.8525 3.5332ZM10.541 3.2793C10.4931 3.24261 10.4453 3.20602 10.3965 3.1709C10.4453 3.20603 10.4931 3.2426 10.541 3.2793ZM10.2295 3.05469C10.1755 3.01842 10.1213 2.98265 10.0664 2.94824C10.1213 2.98265 10.1755 3.01842 10.2295 3.05469ZM9.91992 2.86035C9.8678 2.82967 9.81553 2.79955 9.7627 2.77051C9.81552 2.79956 9.8678 2.82966 9.91992 2.86035ZM9.57812 2.67285C9.52739 2.64715 9.4761 2.62286 9.4248 2.59863C9.4761 2.62287 9.5274 2.64715 9.57812 2.67285ZM9.25781 2.52148C9.19484 2.494 9.13109 2.46868 9.06738 2.44336C9.13109 2.46869 9.19484 2.49399 9.25781 2.52148ZM8.91992 2.38574C8.85105 2.36039 8.78151 2.33731 8.71191 2.31445C8.78151 2.33732 8.85105 2.36038 8.91992 2.38574ZM8.5752 2.26953C8.51309 2.25072 8.45029 2.23462 8.3877 2.21777C8.45029 2.23462 8.51309 2.25071 8.5752 2.26953ZM8.2041 2.16992C8.15711 2.1588 8.10971 2.14967 8.0625 2.13965C8.10972 2.14968 8.15711 2.15879 8.2041 2.16992ZM7.84863 2.0957C7.80909 2.08874 7.76915 2.08433 7.72949 2.07812C7.76915 2.08433 7.80909 2.08874 7.84863 2.0957ZM2.68848 8.31934L2.68945 8.32812C2.70046 8.41011 2.71388 8.49243 2.72949 8.5752C2.71332 8.48949 2.6997 8.40421 2.68848 8.31934ZM2.79785 6.55078C2.78468 6.60148 2.77119 6.65239 2.75977 6.7041C2.77118 6.65239 2.78468 6.60148 2.79785 6.55078Z" fill="#0A1013"/>
</svg>
